<?xml version="1.0" encoding="UTF-8" standalone="no"?>
<svg
   aria-hidden="true"
   focusable="false"
   data-prefix="fas"
   data-icon="ellipsis-v"
   class="svg-inline--fa fa-ellipsis-v fa-w-6"
   role="img"
   viewBox="0 0 192 512"
   version="1.1"
   id="svg131"
   sodipodi:docname="drag-icon.svg"
   inkscape:version="1.1 (1:1.1+202105261517+ce6663b3b7)"
   xmlns:inkscape="http://www.inkscape.org/namespaces/inkscape"
   xmlns:sodipodi="http://sodipodi.sourceforge.net/DTD/sodipodi-0.dtd"
   xmlns="http://www.w3.org/2000/svg"
   xmlns:svg="http://www.w3.org/2000/svg">
  <defs
     id="defs135" />
  <sodipodi:namedview
     id="namedview133"
     pagecolor="#2d2b17"
     bordercolor="#666666"
     borderopacity="1.0"
     inkscape:pageshadow="2"
     inkscape:pageopacity="0"
     inkscape:pagecheckerboard="0"
     showgrid="false"
     inkscape:zoom="1.5917969"
     inkscape:cx="-22.615951"
     inkscape:cy="256.31411"
     inkscape:window-width="1920"
     inkscape:window-height="1010"
     inkscape:window-x="0"
     inkscape:window-y="0"
     inkscape:window-maximized="1"
     inkscape:current-layer="layer1" />
  <g
     inkscape:groupmode="layer"
     id="layer1"
     inkscape:label="vector"
     style="display:inline">
    <path
       fill="currentColor"
       d="m 96,184 c 39.8,0 72,32.2 72,72 0,39.8 -32.2,72 -72,72 -39.8,0 -72,-32.2 -72,-72 0,-39.8 32.2,-72 72,-72 z M 24,80 c 0,39.8 32.2,72 72,72 39.8,0 72,-32.2 72,-72 C 168,40.2 135.8,8 96,8 56.2,8 24,40.2 24,80 Z m 0,352 c 0,39.8 32.2,72 72,72 39.8,0 72,-32.2 72,-72 0,-39.8 -32.2,-72 -72,-72 -39.8,0 -72,32.2 -72,72 z"
       id="path129"
       style="fill:#505050;fill-opacity:1;stroke:none;opacity:0.5" />
  </g>
</svg>
